<?xml version="1.0" encoding="utf-8"?>
<!-- Generator: Adobe Illustrator 21.0.0, SVG Export Plug-In . SVG Version: 6.00 Build 0)  -->
<svg version="1.1" id="Layer_1" xmlns="http://www.w3.org/2000/svg" xmlns:xlink="http://www.w3.org/1999/xlink" x="0px" y="0px"
	 viewBox="0 0 129 129" style="enable-background:new 0 0 129 129;" xml:space="preserve">
<g>
	<g>
		<path d="M122.6,64.5c0-32-26.1-58.1-58.1-58.1S6.4,32.4,6.4,64.5s26.1,58.1,58.1,58.1S122.6,96.5,122.6,64.5z M114.4,64.5
			c0,27.5-22.4,49.9-49.9,49.9S14.6,92,14.6,64.5C14.6,37,37,14.6,64.5,14.6S114.4,37,114.4,64.5z"/>
		<path d="M77.9,87.7L54.4,64.2l23.5-23.5c1.6-1.6,1.6-4.2,0-5.8s-4.2-1.6-5.8,0L45.7,61.3c-0.8,0.8-1.2,1.8-1.2,2.9
			s0.4,2.1,1.2,2.9l26.4,26.4c0.8,0.8,1.9,1.2,2.9,1.2c1.1,0,2.1-0.4,2.9-1.2C79.5,91.9,79.5,89.3,77.9,87.7z"/>
	</g>
</g>
</svg>
